# xmcd
#
# Track frame offsets:
# 150
# 17970
# 37224
# 53058
# 68137
# 84750
# 101048
# 118228
# 135476
# 152070
#
# Disc length: 2268 seconds
#
#
# Revision: 0
# Processed by: cddbd v1.5.2PL0 Copyright (c) Steve Scherf et al.
# Submitted via: FreeRIP 2.945 
#
DISCID=8308da0a
DTITLE=Γιάννης Βαρδής - Να ξεκινήσουμε απ' την αρχή
DYEAR=2008
DGENRE=
TTITLE0=Δύο τσιγάρα
TTITLE1=Να ξεκινήσουμε απ' την αρχή
TTITLE2=Σουλτάνα
TTITLE3=Πάει καιρός
TTITLE4=Άλλη μία μέρα
TTITLE5=Είπα κρυφά να φύγω
TTITLE6=Έχω ανάγκη
TTITLE7=Τελευταία φορά
TTITLE8=Έφη
TTITLE9=Όλα για σένα
EXTD=
EXTT0=
EXTT1=
EXTT2=
EXTT3=
EXTT4=
EXTT5=
EXTT6=
EXTT7=
EXTT8=
EXTT9=
PLAYORDER=
